<svg width="10" height="6" viewBox="0 0 10 6" fill="none" xmlns="http://www.w3.org/2000/svg">
<path d="M4.59998 5.66659C4.80711 5.66065 4.99651 5.58312 5.15044 5.41612L8.89871 1.53799C9.02898 1.40678 9.09998 1.23979 9.09998 1.04297C9.09998 0.649345 8.79218 0.333252 8.40158 0.333252C8.21218 0.333252 8.02864 0.410785 7.89251 0.547958L4.60591 3.96685L1.30742 0.547958C1.17128 0.416745 0.993715 0.333252 0.798396 0.333252C0.407755 0.333252 0.0999756 0.649345 0.0999756 1.04297C0.0999756 1.23979 0.171002 1.40678 0.301215 1.53799L4.05544 5.41612C4.21524 5.58312 4.39284 5.66659 4.59998 5.66659Z" fill="#7E818C"/>
</svg>
